{
  "accessors": [
    {
      "bufferView": 1,
      "componentType": 5126,
      "count": 65532,
      "max": [
        -0.555869996547699,
        -0.5410400032997131,
        -0.006519999820739031
      ],
      "min": [
        -1.8899500370025635,
        -1.8742599487304688,
        -1.2310700416564941
      ],
      "type": "VEC3"
    },
    {
      "bufferView": 1,
      "byteOffset": 786384,
      "componentType": 5126,
      "count": 65532,
      "max": [
        0.9999951720237732,
        0.9999815821647644,
        0.9999876618385315
      ],
      "min": [
        -0.9988425970077515,
        -0.9999826550483704,
        -0.9999884963035583
      ],
      "type": "VEC3"
    },
    {
      "bufferView": 0,
      "componentType": 5125,
      "count": 384990,
      "type": "SCALAR"
    },
    {
      "bufferView": 1,
      "byteOffset": 1572768,
      "componentType": 5126,
      "count": 27382,
      "max": [
        -0.5776100158691406,
        -0.6223400235176086,
        -0.008860000409185886
      ],
      "min": [
        -1.8762500286102295,
        -1.8482199907302856,
        -1.3078700304031372
      ],
      "type": "VEC3"
    },
    {
      "bufferView": 1,
      "byteOffset": 1901352,
      "componentType": 5126,
      "count": 27382,
      "max": [
        0.999548077583313,
        0.9998375177383423,
        0.9999913573265076
      ],
      "min": [
        -0.999995768070221,
        -0.9999606013298035,
        -0.9999802708625793
      ],
      "type": "VEC3"
    },
    {
      "bufferView": 0,
      "byteOffset": 1539960,
      "componentType": 5125,
      "count": 133986,
      "type": "SCALAR"
    },
    {
      "bufferView": 1,
      "byteOffset": 2229936,
      "componentType": 5126,
      "count": 10498,
      "max": [
        0.9880300164222717,
        0.9880300164222717,
        0.3667699992656708
      ],
      "min": [
        -0.9880300164222717,
        -0.9880300164222717,
        -0.9129499793052673
      ],
      "type": "VEC3"
    },
    {
      "bufferView": 1,
      "byteOffset": 2355912,
      "componentType": 5126,
      "count": 10498,
      "max": [
        1.0,
        1.0,
        1.0
      ],
      "min": [
        -1.0,
        -1.0,
        -1.0
      ],
      "type": "VEC3"
    },
    {
      "bufferView": 0,
      "byteOffset": 2075904,
      "componentType": 5125,
      "count": 62976,
      "type": "SCALAR"
    },
    {
      "bufferView": 1,
      "byteOffset": 2481888,
      "componentType": 5126,
      "count": 4,
      "max": [
        1.0,
        1.0,
        0.0
      ],
      "min": [
        -1.0,
        -1.0,
        0.0
      ],
      "type": "VEC3"
    },
    {
      "bufferView": 1,
      "byteOffset": 2481936,
      "componentType": 5126,
      "count": 4,
      "max": [
        0.0,
        0.0,
        1.0
      ],
      "min": [
        0.0,
        0.0,
        1.0
      ],
      "type": "VEC3"
    },
    {
      "bufferView": 0,
      "byteOffset": 2327808,
      "componentType": 5125,
      "count": 6,
      "type": "SCALAR"
    }
  ],
  "asset": {
    "extras": {
      "author": "blackSCORPIO (https://sketchfab.com/blackSCORPIO)",
      "license": "CC-BY-4.0 (http://creativecommons.org/licenses/by/4.0/)",
      "source": "https://sketchfab.com/3d-models/cloth-on-cup-cf9b947f296442a0a3d0830be3520ff7",
      "title": "Cloth On Cup"
    },
    "generator": "Sketchfab-12.66.0",
    "version": "2.0"
  },
  "bufferViews": [
    {
      "buffer": 0,
      "byteLength": 2327832,
      "name": "floatBufferViews",
      "target": 34963
    },
    {
      "buffer": 0,
      "byteLength": 2481984,
      "byteOffset": 2327832,
      "byteStride": 12,
      "name": "floatBufferViews",
      "target": 34962
    }
  ],
  "buffers": [
    {
      "byteLength": 4809816,
      "uri": "scene.bin"
    }
  ],
  "materials": [
    {
      "doubleSided": true,
      "name": "Root",
      "pbrMetallicRoughness": {
        "baseColorFactor": [
          0.0,
          0.0,
          0.0,
          1.0
        ],
        "metallicFactor": 0.0,
        "roughnessFactor": 0.6
      }
    },
    {
      "alphaMode": "BLEND",
      "doubleSided": true,
      "name": "Material.001",
      "pbrMetallicRoughness": {
        "baseColorFactor": [
          0.2840263330936432,
          0.2840263330936432,
          0.2840263330936432,
          0.24
        ],
        "metallicFactor": 0.0,
        "roughnessFactor": 0.6
      }
    },
    {
      "doubleSided": true,
      "name": "Material.002",
      "pbrMetallicRoughness": {
        "baseColorFactor": [
          0.5736551082134247,
          0.5565892350673676,
          0.5565892350673676,
          1.0
        ],
        "metallicFactor": 0.0,
        "roughnessFactor": 0.6
      }
    }
  ],
  "meshes": [
    {
      "name": "Plane.001_0",
      "primitives": [
        {
          "attributes": {
            "NORMAL": 1,
            "POSITION": 0
          },
          "indices": 2,
          "material": 2,
          "mode": 4
        }
      ]
    },
    {
      "name": "Plane.001_0",
      "primitives": [
        {
          "attributes": {
            "NORMAL": 4,
            "POSITION": 3
          },
          "indices": 5,
          "material": 2,
          "mode": 4
        }
      ]
    },
    {
      "name": "Sphere_0",
      "primitives": [
        {
          "attributes": {
            "NORMAL": 7,
            "POSITION": 6
          },
          "indices": 8,
          "material": 1,
          "mode": 4
        }
      ]
    },
    {
      "name": "Plane_0",
      "primitives": [
        {
          "attributes": {
            "NORMAL": 10,
            "POSITION": 9
          },
          "indices": 11,
          "material": 0,
          "mode": 4
        }
      ]
    }
  ],
  "nodes": [
    {
      "children": [
        1
      ],
      "matrix": [
        1.0,
        0.0,
        0.0,
        0.0,
        0.0,
        2.220446049250313e-16,
        -1.0,
        0.0,
        0.0,
        1.0,
        2.220446049250313e-16,
        0.0,
        0.0,
        0.0,
        0.0,
        1.0
      ],
      "name": "Sketchfab_model"
    },
    {
      "children": [
        2,
        4,
        7,
        9
      ],
      "name": "Root"
    },
    {
      "children": [
        3
      ],
      "matrix": [
        -0.29086000000000006,
        0.9551700000000001,
        -0.05519000000000001,
        0.0,
        -0.7711,
        -0.19988000000000003,
        0.6045200000000001,
        0.0,
        0.5663900000000001,
        0.21839000000000003,
        0.7946700000000001,
        0.0,
        -0.006310000000000001,
        -3.4673300000000005,
        5.14807,
        1.0
      ],
      "name": "Lamp"
    },
    {
      "name": "Lamp"
    },
    {
      "children": [
        5,
        6
      ],
      "matrix": [
        2.1213200000000003,
        0.72553,
        1.9933899999999998,
        0.0,
        -2.1213200000000003,
        0.72553,
        1.9933899999999998,
        0.0,
        0.0,
        -2.8190799999999996,
        1.02606,
        0.0,
        0.03151000000000001,
        0.7243900000000001,
        4.43468,
        1.0
      ],
      "name": "Plane.001"
    },
    {
      "mesh": 0,
      "name": "Plane.001_0"
    },
    {
      "mesh": 1,
      "name": "Plane.001_0"
    },
    {
      "children": [
        8
      ],
      "matrix": [
        1.0,
        0.0,
        0.0,
        0.0,
        0.0,
        1.0,
        0.0,
        0.0,
        0.0,
        0.0,
        1.0,
        0.0,
        0.009060000000000002,
        -0.015320000000000002,
        -0.026580000000000006,
        1.0
      ],
      "name": "Sphere"
    },
    {
      "mesh": 2,
      "name": "Sphere_0"
    },
    {
      "children": [
        10
      ],
      "matrix": [
        3.8619399999999997,
        0.0,
        0.0,
        0.0,
        0.0,
        3.8619399999999997,
        0.0,
        0.0,
        0.0,
        0.0,
        3.8619399999999997,
        0.0,
        0.009060000000000002,
        -0.015320000000000002,
        -0.93748,
        1.0
      ],
      "name": "Plane"
    },
    {
      "mesh": 3,
      "name": "Plane_0"
    }
  ],
  "scene": 0,
  "scenes": [
    {
      "name": "Sketchfab_Scene",
      "nodes": [
        0
      ]
    }
  ]
}
